<svg data-name="Layer 1" xmlns="http://www.w3.org/2000/svg" viewBox="0 0 18.77 28.82">
  <path d="M17.16 9.08A8.08 8.08 0 101 9.08l.61 10.66a8.08 8.08 0 1016.16 0z" fill="#ffdfd0"/>
  <path d="M9.385 23.05a3.315 3.315 0 01-3.31-3.31V9.08a3.31 3.31 0 116.62 0v10.66a3.314 3.314 0 01-3.31 3.31z" fill="#738bff"/>
  <path d="M9.386 6.27a2.813 2.813 0 012.81 2.81v10.66a2.81 2.81 0 01-5.62 0V9.079a2.814 2.814 0 012.81-2.81m0-1a3.81 3.81 0 00-3.81 3.81v10.66a3.81 3.81 0 003.808 3.812h.001a3.81 3.81 0 003.81-3.81V9.08a3.81 3.81 0 00-3.81-3.81z"/>
  <path d="M9.08 1a8.08 8.08 0 018.08 8.08l.61 10.66a8.08 8.08 0 11-16.16 0L1 9.08A8.08 8.08 0 019.08 1m0-1A9.09 9.09 0 000 9.08v.029l.002.028L.61 19.77a9.08 9.08 0 0018.16-.03v-.028l-.002-.029-.608-10.631A9.09 9.09 0 009.08 0z"/>
</svg>
